<svg xmlns="http://www.w3.org/2000/svg" viewBox="0 0 1200 630">
  <defs>
    <linearGradient id="bg" x1="0" x2="1" y1="0" y2="1">
      <stop offset="0" stop-color="#101415"/>
      <stop offset="1" stop-color="#0b0f10"/>
    </linearGradient>
    <radialGradient id="glow" cx="70%" cy="30%" r="55%">
      <stop offset="0" stop-color="#00dbe7" stop-opacity="0.32"/>
      <stop offset="0.45" stop-color="#dcb8ff" stop-opacity="0.12"/>
      <stop offset="1" stop-color="#101415" stop-opacity="0"/>
    </radialGradient>
  </defs>
  <rect width="1200" height="630" fill="url(#bg)"/>
  <rect width="1200" height="630" fill="url(#glow)"/>
  <g stroke="#00dbe7" stroke-opacity="0.09">
    <path d="M0 90h1200M0 180h1200M0 270h1200M0 360h1200M0 450h1200M0 540h1200"/>
    <path d="M100 0v630M220 0v630M340 0v630M460 0v630M580 0v630M700 0v630M820 0v630M940 0v630M1060 0v630"/>
  </g>
  <text x="80" y="210" fill="#74f5ff" font-family="Space Grotesk, Arial, sans-serif" font-size="72" font-weight="700">Reinan Lopes Argolo</text>
  <text x="82" y="286" fill="#e0e3e5" font-family="Inter, Arial, sans-serif" font-size="34" font-weight="500">Computer Vision • AI • Cetacean Tracking</text>
  <text x="82" y="358" fill="#b9cacb" font-family="Inter, Arial, sans-serif" font-size="28">Pesquisa aplicada entre ciência, código e conservação marinha.</text>
  <rect x="82" y="430" width="270" height="52" rx="8" fill="#00dbe7"/>
  <text x="108" y="465" fill="#002022" font-family="JetBrains Mono, monospace" font-size="20" font-weight="700">PORTFOLIO</text>
  <circle cx="990" cy="270" r="76" fill="none" stroke="#74f5ff" stroke-width="3" stroke-opacity="0.75"/>
  <path d="M895 300c52-78 134-78 190 0-42 44-139 45-190 0Z" fill="none" stroke="#dcb8ff" stroke-width="5" stroke-linecap="round"/>
</svg>
